<?xml version="1.0" encoding="UTF-8" standalone="no"?>
<!DOCTYPE svg PUBLIC "-//W3C//DTD SVG 1.1//EN" "http://www.w3.org/Graphics/SVG/1.1/DTD/svg11.dtd">
<svg width="100%" height="100%" viewBox="0 0 3500 3500" version="1.1" xmlns="http://www.w3.org/2000/svg" xmlns:xlink="http://www.w3.org/1999/xlink" xml:space="preserve" xmlns:serif="http://www.serif.com/" style="fill-rule:evenodd;clip-rule:evenodd;stroke-linecap:round;stroke-linejoin:round;">
    <g id="Logo" transform="matrix(0.976166,0,0,1.422886,-0,0)">
        <rect x="0" y="-0" width="3585.454" height="2459.79" style="fill:none;"/>
        <clipPath id="_clip1">
            <rect x="0" y="-0" width="3585.454" height="2459.79"/>
        </clipPath>
        <g clip-path="url(#_clip1)">
            <g transform="matrix(1.071048,0,0,0.721216,-257.176653,345.720339)">
                <path d="M3587.732,340.754L3416.54,2191.907C3416.54,2250.967 3369.477,2298.915 3311.508,2298.915L548.983,2379.676C491.014,2379.676 443.951,2331.727 443.951,2272.668L240.117,179.232C240.117,120.173 287.18,72.224 345.148,72.224L3482.7,233.746C3540.669,233.746 3587.732,281.695 3587.732,340.754Z" style="fill:url(#_Linear2);"/>
                <clipPath id="_clip3">
                    <path d="M3587.732,340.754L3416.54,2191.907C3416.54,2250.967 3369.477,2298.915 3311.508,2298.915L548.983,2379.676C491.014,2379.676 443.951,2331.727 443.951,2272.668L240.117,179.232C240.117,120.173 287.18,72.224 345.148,72.224L3482.7,233.746C3540.669,233.746 3587.732,281.695 3587.732,340.754Z"/>
                </clipPath>
                <g clip-path="url(#_clip3)">
                    <g id="Layer1" transform="matrix(1.050314,0,0,1.070081,369.155478,223.881391)">
                        <g id="html" transform="matrix(92.653405,12.583193,-12.583193,92.653405,1418.630974,-533.484045)">
                            <g transform="matrix(1,0,0,1,0.401698,-0.469539)">
                                <path d="M16.695,5C17.792,5 18.695,5.903 18.695,7C18.695,7.094 18.688,7.189 18.675,7.282L17.426,16.066C17.318,16.822 16.787,17.452 16.061,17.687L12.615,18.801C12.215,18.93 11.785,18.93 11.385,18.801L7.939,17.687C7.213,17.452 6.682,16.822 6.574,16.066L5.324,7.282C5.311,7.189 5.304,7.094 5.304,7C5.304,5.903 6.207,5 7.304,5C7.304,5 7.305,5 7.305,5L16.695,5Z" style="fill:none;fill-rule:nonzero;stroke:white;stroke-opacity:0.15;stroke-width:2px;"/>
                            </g>
                            <path d="M15,8.4L9,8.4L9.429,11.794L14.571,11.794L14.143,14.764L12,15.4L9.857,14.764L9.771,14.339" style="fill:none;fill-rule:nonzero;stroke:white;stroke-opacity:0.15;stroke-width:2px;"/>
                        </g>
                        <g id="svelte" transform="matrix(3.209686,-0.218501,0.218501,3.209686,-109.554676,556.76292)">
                            <path d="M403.508,229.23C491.235,87.7 315.378,-58.105 190.392,23.555L71.528,99.337C13.969,136.824 -11.022,208.85 24.078,282.867C-63.683,415.999 107.083,571.897 237.194,488.629L356.058,412.847C420.731,370.264 435.57,296.829 403.508,229.231M105.916,148.345L224.606,72.606C302.579,25.927 392.362,107.548 359.994,183.598C340.769,168.324 319.344,158.933 303.071,154.704C309.257,130.134 280.736,111.908 260.897,124.598L141.947,200.078C112.536,220.406 143.893,262.216 172.961,244.674L218.291,215.779C320.016,158.376 416.291,296.204 321.671,363.754L202.979,439.493C131.455,485.225 34.11,411.96 67.592,328.5C85.378,341.963 104.269,351.863 124.515,357.394C120.045,385.616 148.521,399.337 166.991,387.759L285.64,312.02C314.92,290.065 283.491,250.328 254.67,267.425L209.166,296.319C108.606,355.089 10.09,215.899 105.916,148.344" style="fill:white;fill-opacity:0.15;fill-rule:nonzero;"/>
                        </g>
                    </g>
                </g>
            </g>
        </g>
    </g>
    <defs>
        <linearGradient id="_Linear2" x1="0" y1="0" x2="1" y2="0" gradientUnits="userSpaceOnUse" gradientTransform="matrix(2654.644299,1859.809691,-1825.455396,2704.603577,675.552072,353.335686)"><stop offset="0" style="stop-color:rgb(114,135,253);stop-opacity:1"/><stop offset="1" style="stop-color:rgb(43,63,176);stop-opacity:1"/></linearGradient>
    </defs>
</svg>
